<?xml version="1.0" encoding="iso-8859-1"?>
<!-- Generator: Adobe Illustrator 19.0.0, SVG Export Plug-In . SVG Version: 6.00 Build 0)  -->
<svg version="1.1" id="Layer_1" xmlns="http://www.w3.org/2000/svg" xmlns:xlink="http://www.w3.org/1999/xlink" x="0px" y="0px"
	 viewBox="0 0 491.52 491.52" style="enable-background:new 0 0 491.52 491.52;" xml:space="preserve">
<path style="fill:#F6C358;" d="M181.226,392.969c19.386,17.367,47.685,19.752,64.305,19.426c7.97-0.156,14.805-5.64,16.805-13.357
	l0,0c2.39-9.22-2.893-18.69-11.994-21.501l-75.26-23.242c-5.025-1.552-10.421-1.412-15.359,0.399l-46.74,17.138v94.814h108.728
	c5.499,0,10.876-1.616,15.464-4.648l111.982-74.006c10.186-6.732,11.488-21.179,2.669-29.623v0
	c-6.507-6.23-16.491-7.044-23.922-1.95l-66.721,45.74"/>
<defs>
	<filter id="Adobe_OpacityMaskFilter" filterUnits="userSpaceOnUse" x="177.134" y="391.279" width="86.583" height="25.086">
		<feColorMatrix  type="matrix" values="1 0 0 0 0  0 1 0 0 0  0 0 1 0 0  0 0 0 1 0"/>
	</filter>
</defs>
<mask maskUnits="userSpaceOnUse" x="177.134" y="391.279" width="86.583" height="25.086" id="SVGID_2_">
</mask>
<g style="mask:url(#SVGID_2_);">
	<path style="fill:#FFFFFF;stroke:#DC8744;stroke-miterlimit:10;" d="M241.19,415.865c-16.433,0-44.141-2.891-63.35-20.102
		l3.392-3.778c19.021,17.023,47.344,19.051,62.557,18.778c6.763-0.134,12.684-4.844,14.4-11.459l4.919,1.279
		c-2.291,8.801-10.195,15.079-19.219,15.257C243.025,415.855,242.132,415.865,241.19,415.865z"/>
</g>
<path style="fill:#F6C358;" d="M181.226,392.969c19.386,17.367,47.685,19.752,64.305,19.426c7.97-0.156,14.805-5.64,16.805-13.357
	l0,0c2.39-9.22-2.893-18.69-11.994-21.501l-75.26-23.242c-5.025-1.552-10.421-1.412-15.359,0.399l-46.74,17.138"/>
<rect x="46.694" y="353.226" style="fill:#27A2DB;" width="71.834" height="138.291"/>
<circle style="fill:#EBF0F3;" cx="82.637" cy="465.411" r="12.406"/>
<polygon style="fill:#D15241;" points="138.588,100.092 66.43,121.041 66.43,0.003 138.588,0.003 "/>
<polygon style="fill:#E56353;" points="245.764,0.003 0,143.927 0,185.349 245.764,41.422 491.52,185.344 491.52,143.922 "/>
<ellipse style="fill:#3EA69B;" cx="245.76" cy="222.108" rx="120.115" ry="120.197"/>
<ellipse style="fill:#44C4A1;" cx="245.76" cy="222.108" rx="100.076" ry="100.142"/>
<path style="fill:#3EA69B;" d="M241.632,300.023v-13.725c-17.171-1.752-32.584-8.584-46.224-20.488l13.716-16.357
	c10.52,9.15,21.346,14.597,32.508,16.357v-36.478c-14.159-3.382-24.526-7.834-31.101-13.35c-6.575-5.516-9.862-13.694-9.862-24.535
	s3.777-19.708,11.361-26.608c7.584-6.893,17.447-10.65,29.603-11.277v-9.402h12.018v9.586c13.777,1.01,26.804,5.707,39.083,14.108
	l-12.217,17.298c-8.272-5.891-17.217-9.525-26.866-10.91v35.345h0.566c14.404,3.389,24.985,7.964,31.743,13.725
	c6.774,5.768,10.153,14.138,10.153,25.101c0,10.971-3.884,19.907-11.651,26.792c-7.768,6.901-18.028,10.657-30.811,11.285v13.534
	H241.632z M228.375,178.663c-3.196,2.815-4.786,6.327-4.786,10.527c0,4.2,1.254,7.52,3.762,9.961
	c2.492,2.448,7.263,4.797,14.281,7.054v-32.53C235.989,174.179,231.57,175.84,228.375,178.663z M267.931,261.105
	c3.502-2.877,5.26-6.511,5.26-10.902c0-4.384-1.376-7.865-4.128-10.435c-2.768-2.571-7.905-4.98-15.413-7.237v33.838
	C259.659,265.748,264.415,263.989,267.931,261.105z"/>
<g>
</g>
<g>
</g>
<g>
</g>
<g>
</g>
<g>
</g>
<g>
</g>
<g>
</g>
<g>
</g>
<g>
</g>
<g>
</g>
<g>
</g>
<g>
</g>
<g>
</g>
<g>
</g>
<g>
</g>
</svg>
