<?xml version="1.0" encoding="iso-8859-1"?>
<!-- Generator: Adobe Illustrator 19.0.0, SVG Export Plug-In . SVG Version: 6.00 Build 0)  -->
<svg version="1.1" id="Capa_1" xmlns="http://www.w3.org/2000/svg" xmlns:xlink="http://www.w3.org/1999/xlink" x="0px" y="0px"
	 viewBox="0 0 512 512" style="enable-background:new 0 0 512 512;" xml:space="preserve">
<ellipse style="fill:#FD8E61;" cx="159.812" cy="135.765" rx="152.297" ry="128.25"/>
<path style="fill:#FD7239;" d="M186.865,242.975c-84.111,0-152.297-57.42-152.297-128.25c0-31.668,13.638-60.649,36.227-83.023
	c-38.328,23.29-63.28,61.222-63.28,104.064c0,70.83,68.186,128.25,152.297,128.25c46.506,0,88.135-17.559,116.071-45.227
	C250.844,234.003,220.101,242.975,186.865,242.975z"/>
<circle style="fill:#76E7EB;" cx="71.64" cy="400.282" r="64.125"/>
<path style="fill:#1BD7DE;" d="M93.683,452.384c-35.415,0-64.125-28.71-64.125-64.125c0-19.781,8.962-37.464,23.041-49.226
	c-26.118,8.11-45.084,32.464-45.084,61.25c0,35.415,28.71,64.125,64.125,64.125c15.635,0,29.957-5.601,41.084-14.899
	C106.708,451.377,100.313,452.384,93.683,452.384z"/>
<circle style="fill:#76E7EB;" cx="400.282" cy="440.36" r="64.125"/>
<path style="fill:#1BD7DE;" d="M422.325,491.46c-35.415,0-64.125-28.71-64.125-64.125c0-18.879,8.162-35.85,21.145-47.585
	c-25.131,8.68-43.188,32.529-43.188,60.61c0,35.415,28.71,64.125,64.125,64.125c16.536,0,31.608-6.262,42.98-16.54
	C436.698,490.211,429.659,491.46,422.325,491.46z"/>
<circle style="fill:#76E7EB;" cx="440.36" cy="159.812" r="64.125"/>
<path style="fill:#1BD7DE;" d="M465.409,209.91c-35.415,0-64.125-28.71-64.125-64.125c0-18.841,8.127-35.783,21.065-47.515
	c-26.644,7.786-46.114,32.383-46.114,61.542c0,35.415,28.71,64.125,64.125,64.125c16.574,0,31.679-6.289,43.06-16.61
	C477.704,208.997,471.665,209.91,465.409,209.91z"/>
<path d="M191.875,119.233c4.151,0,7.515-3.364,7.515-7.515v-8.016c0-17.403-14.159-31.562-31.562-31.562h-0.501V55.609
	c0-4.151-3.364-7.515-7.515-7.515s-7.515,3.364-7.515,7.515v16.707c-17.973,1.767-32.063,16.965-32.063,35.395
	c0,19.613,15.956,35.569,35.569,35.569h8.016c11.326,0,20.54,9.214,20.54,20.54s-9.214,20.54-20.54,20.54h-12.023
	c-9.116,0-16.532-7.416-16.532-16.532c0-4.151-3.364-7.515-7.515-7.515c-4.151,0-7.515,3.364-7.515,7.515
	c0,17.403,14.159,31.562,31.562,31.562h0.501v16.532c0,4.151,3.364,7.515,7.515,7.515s7.515-3.364,7.515-7.515v-16.707
	c17.973-1.767,32.063-16.965,32.063-35.395c0-19.613-15.956-35.569-35.569-35.569h-8.016c-11.326,0-20.54-9.214-20.54-20.54
	s9.214-20.54,20.54-20.54h12.023c9.116,0,16.532,7.416,16.532,16.532v8.016C184.36,115.869,187.724,119.233,191.875,119.233z"/>
<path d="M71.64,360.704c-3.132,0-5.937,1.943-7.036,4.876l-24.047,64.125c-1.457,3.887,0.512,8.218,4.398,9.675
	c3.887,1.456,8.218-0.512,9.675-4.398l7.189-19.17h19.642l7.189,19.171c1.497,3.992,6.162,5.946,10.065,4.237
	c3.605-1.577,5.387-5.836,4.008-9.516L78.676,365.58C77.577,362.647,74.772,360.704,71.64,360.704z M67.455,400.783l4.185-11.162
	l4.185,11.162H67.455z"/>
<path d="M384.25,479.937h40.078c4.151,0,7.515-3.364,7.515-7.515V440.36c0-4.151-3.364-7.515-7.515-7.515h-0.518
	c0.011-0.165,0.017-0.333,0.017-0.501v-24.047c0-4.151-3.364-7.515-7.515-7.515H384.25c-4.151,0-7.515,3.364-7.515,7.515v64.125
	C376.736,476.574,380.099,479.937,384.25,479.937z M391.765,415.812h17.033v16.532c0,0.168,0.006,0.336,0.017,0.501h-16.549
	c-0.168,0-0.336,0.006-0.501,0.017V415.812z M391.765,447.858c0.165,0.011,0.333,0.017,0.501,0.017h24.548v17.033h-25.049V447.858z"
	/>
<path d="M440.36,231.452c39.502,0,71.64-32.138,71.64-71.64s-32.138-71.64-71.64-71.64c-30.874,0-57.249,19.632-67.298,47.069
	l-54.313-13.578c-4.002-32.281-21.611-62.678-49.682-85.015c-3.249-2.583-7.974-2.045-10.56,1.201
	c-2.584,3.247-2.046,7.976,1.201,10.56c28.947,23.031,44.887,54.055,44.887,87.356c0,66.574-64.949,120.736-144.783,120.736
	S15.029,202.339,15.029,135.765S79.978,15.029,159.812,15.029c24.221,0,48.188,5.092,69.311,14.727
	c3.775,1.721,8.233,0.057,9.956-3.719c1.722-3.776,0.057-8.233-3.719-9.956C212.294,5.561,186.17,0,159.812,0
	C71.692,0,0,60.904,0,135.765c0,55.003,38.704,102.472,94.189,123.785l-27.72,69.299C29.374,331.51,0,362.521,0,400.282
	c0,39.502,32.138,71.64,71.64,71.64s71.64-32.138,71.64-71.64c0-35.84-26.457-65.615-60.865-70.828l26.046-65.113
	c16.123,4.66,33.396,7.19,51.351,7.19c27.629,0,53.642-5.99,76.337-16.516L352.581,386.97
	c-14.679,13.128-23.939,32.195-23.939,53.39c0,39.502,32.138,71.64,71.64,71.64s71.64-32.138,71.64-71.64s-32.138-71.64-71.64-71.64
	c-12.89,0-24.985,3.44-35.445,9.422l-114.96-130.286c41.594-24.196,69.095-64.646,69.723-110.487l49.831,12.458
	c-0.458,3.265-0.711,6.596-0.711,9.986C368.72,199.314,400.858,231.452,440.36,231.452z M128.25,400.282
	c0,31.215-25.396,56.611-56.611,56.611s-56.611-25.396-56.611-56.611c0-31.206,25.38-56.595,56.583-56.61
	c0.009,0,0.018,0.001,0.026,0.001c0.007,0,0.013-0.001,0.02-0.001C102.865,343.681,128.25,369.073,128.25,400.282z M456.892,440.36
	c0,31.215-25.396,56.611-56.611,56.611s-56.611-25.396-56.611-56.611s25.396-56.611,56.611-56.611S456.892,409.145,456.892,440.36z
	 M440.36,103.202c31.215,0,56.611,25.396,56.611,56.611s-25.396,56.611-56.611,56.611s-56.611-25.396-56.611-56.611
	S409.145,103.202,440.36,103.202z"/>
<path d="M443.7,200.391c7.664,0,15.122-2.164,21.563-6.259c3.502-2.226,4.537-6.869,2.311-10.373
	c-2.225-3.502-6.869-4.536-10.373-2.311c-4.028,2.56-8.696,3.913-13.5,3.913c-13.904,0-25.215-11.312-25.215-25.216
	c0-13.904,11.311-25.215,25.215-25.215c4.931,0,9.703,1.42,13.8,4.107c3.472,2.275,8.13,1.308,10.405-2.164
	c2.275-3.472,1.307-8.129-2.164-10.405c-6.553-4.295-14.175-6.567-22.041-6.567c-22.19,0-40.245,18.054-40.245,40.245
	C403.455,182.337,421.509,200.391,443.7,200.391z"/>
<g>
</g>
<g>
</g>
<g>
</g>
<g>
</g>
<g>
</g>
<g>
</g>
<g>
</g>
<g>
</g>
<g>
</g>
<g>
</g>
<g>
</g>
<g>
</g>
<g>
</g>
<g>
</g>
<g>
</g>
</svg>
