<?xml version="1.0" encoding="iso-8859-1"?>
<!-- Generator: Adobe Illustrator 19.0.0, SVG Export Plug-In . SVG Version: 6.00 Build 0)  -->
<svg version="1.1" id="Layer_1" xmlns="http://www.w3.org/2000/svg" xmlns:xlink="http://www.w3.org/1999/xlink" x="0px" y="0px"
	 viewBox="0 0 491.535 491.535" style="enable-background:new 0 0 491.535 491.535;" xml:space="preserve">
<g>
	<rect x="236.859" y="285.947" style="fill:#64798A;" width="17.874" height="132.244"/>
	<polygon style="fill:#64798A;" points="443.548,361.007 309.305,361.007 309.305,253.666 327.178,253.666 327.178,343.134 
		443.548,343.134 	"/>
	<polygon style="fill:#64798A;" points="182.227,361.007 47.993,361.007 47.993,343.134 164.353,343.134 164.353,253.666 
		182.227,253.666 	"/>
</g>
<ellipse style="fill:#FCD462;" cx="245.768" cy="155.986" rx="155.884" ry="155.986"/>
<ellipse style="fill:#F6C358;" cx="245.768" cy="155.986" rx="129.874" ry="129.961"/>
<path style="fill:#DC8744;" d="M240.41,257.127v-17.812c-22.285-2.274-42.287-11.14-59.988-26.589l17.8-21.228
	c13.653,11.875,27.702,18.944,42.188,21.228v-47.34c-18.376-4.389-31.83-10.167-40.363-17.326
	c-8.533-7.159-12.799-17.772-12.799-31.841s4.901-25.576,14.744-34.532c9.843-8.946,22.642-13.821,38.418-14.635V54.849h15.597
	v12.441c17.879,1.311,34.786,7.407,50.721,18.309l-15.855,22.449c-10.736-7.645-22.344-12.361-34.866-14.158v45.871h0.734
	c18.693,4.398,32.425,10.336,41.196,17.812c8.791,7.486,13.176,18.348,13.176,32.576c0,14.238-5.04,25.835-15.121,34.77
	c-10.081,8.956-23.396,13.831-39.986,14.645v17.564H240.41z M223.205,99.627c-4.147,3.654-6.211,8.211-6.211,13.662
	s1.627,9.76,4.882,12.927c3.235,3.177,9.426,6.225,18.534,9.154V93.154C233.087,93.809,227.352,95.964,223.205,99.627z
	 M274.541,206.619c4.544-3.733,6.826-8.449,6.826-14.148c0-5.689-1.786-10.207-5.358-13.543c-3.592-3.336-10.259-6.464-20.003-9.393
	v43.915C263.806,212.646,269.977,210.362,274.541,206.619z"/>
<rect x="204.91" y="409.805" style="fill:#E56353;" width="81.715" height="81.715"/>
<rect x="204.91" y="476.314" style="fill:#D15241;" width="81.715" height="15.222"/>
<rect x="409.812" y="316.836" style="fill:#27A2DB;" width="81.715" height="81.715"/>
<rect x="409.812" y="383.329" style="fill:#2D93BA;" width="81.715" height="15.222"/>
<rect x="0.008" y="316.836" style="fill:#44C4A1;" width="81.715" height="81.715"/>
<rect x="0.008" y="383.329" style="fill:#3EA69B;" width="81.715" height="15.222"/>
<g>
</g>
<g>
</g>
<g>
</g>
<g>
</g>
<g>
</g>
<g>
</g>
<g>
</g>
<g>
</g>
<g>
</g>
<g>
</g>
<g>
</g>
<g>
</g>
<g>
</g>
<g>
</g>
<g>
</g>
</svg>
