<?xml version="1.0" encoding="iso-8859-1"?>
<!-- Generator: Adobe Illustrator 19.0.0, SVG Export Plug-In . SVG Version: 6.00 Build 0)  -->
<svg version="1.1" id="Layer_1" xmlns="http://www.w3.org/2000/svg" xmlns:xlink="http://www.w3.org/1999/xlink" x="0px" y="0px"
	 viewBox="0 0 491.52 491.52" style="enable-background:new 0 0 491.52 491.52;" xml:space="preserve">
<circle style="fill:#334D5C;" cx="245.76" cy="245.76" r="245.76"/>
<path style="opacity:0.1;enable-background:new    ;" d="M483.998,306.245L310.426,132.71c-16.23-17.101-39.219-27.75-64.666-27.75
	c-49.306,0-89.293,39.987-89.293,89.344c0,24.627,9.984,46.848,26.061,62.925l-0.051,0.051l16.64,16.64v27.648h-32.256
	l-15.104-15.104H104.96v46.848l157.574,157.575C369.908,483.641,458.372,407.49,483.998,306.245z"/>
<g>
	<rect x="240.64" y="268.8" style="fill:#64798A;" width="10.24" height="75.766"/>
	<polygon style="fill:#64798A;" points="359.071,311.787 282.161,311.787 282.161,250.29 292.401,250.29 292.401,301.547 
		359.071,301.547 	"/>
	<polygon style="fill:#64798A;" points="209.356,311.787 132.451,311.787 132.451,301.547 199.116,301.547 199.116,250.29 
		209.356,250.29 	"/>
</g>
<ellipse style="fill:#FCD462;" cx="245.76" cy="194.33" rx="89.308" ry="89.37"/>
<ellipse style="fill:#F6C358;" cx="245.76" cy="194.33" rx="74.409" ry="74.455"/>
<path style="fill:#DC8744;" d="M242.69,252.272v-10.205c-12.767-1.303-24.227-6.382-34.368-15.233l10.198-12.162
	c7.822,6.803,15.871,10.853,24.17,12.162v-27.122c-10.528-2.514-18.236-5.825-23.124-9.926c-4.889-4.101-7.333-10.182-7.333-18.242
	c0-8.06,2.808-14.653,8.447-19.784c5.639-5.125,12.972-7.918,22.01-8.385v-6.991h8.936v7.127
	c10.243,0.751,19.93,4.243,29.059,10.489l-9.084,12.861c-6.151-4.38-12.801-7.082-19.975-8.112v26.28h0.421
	c10.71,2.52,18.577,5.922,23.602,10.205c5.036,4.289,7.549,10.512,7.549,18.663c0,8.157-2.888,14.801-8.663,19.921
	c-5.775,5.131-13.404,7.924-22.908,8.39v10.063H242.69z M232.834,162.038c-2.376,2.093-3.558,4.704-3.558,7.827
	s0.932,5.592,2.797,7.406c1.853,1.82,5.4,3.567,10.619,5.245v-24.187C238.495,158.705,235.21,159.939,232.834,162.038z
	 M262.245,223.336c2.603-2.139,3.911-4.841,3.911-8.106c0-3.259-1.023-5.848-3.07-7.759c-2.058-1.911-5.878-3.703-11.46-5.381
	v25.159C256.094,226.788,259.63,225.48,262.245,223.336z"/>
<rect x="222.362" y="339.763" style="fill:#E56353;" width="46.817" height="46.817"/>
<rect x="222.362" y="377.856" style="fill:#D15241;" width="46.817" height="8.719"/>
<rect x="339.763" y="286.479" style="fill:#27A2DB;" width="46.817" height="46.817"/>
<rect x="339.763" y="324.557" style="fill:#2D93BA;" width="46.817" height="8.719"/>
<rect x="104.96" y="286.479" style="fill:#44C4A1;" width="46.817" height="46.817"/>
<rect x="104.96" y="324.557" style="fill:#3EA69B;" width="46.817" height="8.719"/>
<g>
</g>
<g>
</g>
<g>
</g>
<g>
</g>
<g>
</g>
<g>
</g>
<g>
</g>
<g>
</g>
<g>
</g>
<g>
</g>
<g>
</g>
<g>
</g>
<g>
</g>
<g>
</g>
<g>
</g>
</svg>
