<?xml version="1.0" encoding="iso-8859-1"?>
<!-- Generator: Adobe Illustrator 19.0.0, SVG Export Plug-In . SVG Version: 6.00 Build 0)  -->
<svg version="1.1" id="Capa_1" xmlns="http://www.w3.org/2000/svg" xmlns:xlink="http://www.w3.org/1999/xlink" x="0px" y="0px"
	 viewBox="0 0 512 512" style="enable-background:new 0 0 512 512;" xml:space="preserve">
<path style="fill:#D2F0FF;" d="M500.239,359.847c0,9.235-4.675,18.114-12.872,23.25l-196.98,123.238
	c-10.321,6.457-23.148,7.456-34.344,2.675l-119.301-50.944l-68.114,11.835V337.225l109.805-19.561
	c9.995-1.781,20.284,0.601,28.481,6.592l76.855,56.177l182.121-47.076c13.564-3.554,27.621,3.7,32.579,16.814
	C499.663,353.348,500.239,356.619,500.239,359.847z"/>
<path style="fill:#73C8F0;" d="M465.888,333.358l-182.121,47.076l-27.766-20.296v148.854l0.042,0.018
	c11.196,4.781,24.023,3.782,34.344-2.675l196.978-123.238c8.197-5.136,12.872-14.015,12.872-23.25c0-3.229-0.577-6.499-1.772-9.675
	C493.509,337.059,479.453,329.805,465.888,333.358z"/>
<g>
	<path style="fill:#41B4E6;" d="M68.627,337.226v132.675L33.7,475.973c-11.456,1.992-21.94-6.827-21.94-18.455v-94.474
		c0-9.079,6.511-16.85,15.448-18.442L68.627,337.226z"/>
	<path style="fill:#41B4E6;" d="M308.217,418.237c7.794-10.26,11.061-22.933,9.201-35.686c-0.512-3.511-1.408-6.9-2.635-10.134
		l-31.015,8.017l-0.066-0.048c1.339,1.987,2.241,4.257,2.599,6.703c0.632,4.334-0.478,8.641-3.131,12.133
		c-3.085,4.067-7.793,6.399-12.914,6.399c-3.315,0-6.51-1.007-9.244-2.916l-55.441-38.669c-7.122-4.968-16.925-3.221-21.891,3.902
		c-4.967,7.123-3.221,16.924,3.902,21.891l55.435,38.666c8.036,5.609,17.455,8.575,27.241,8.575
		C285.079,437.07,299.272,430.028,308.217,418.237z"/>
</g>
<path style="fill:#0073AA;" d="M286.3,387.09c0.632,4.334-0.478,8.641-3.131,12.133c-3.085,4.067-7.793,6.4-12.914,6.4
	c-3.315,0-6.51-1.007-9.244-2.916l-5.01-3.494v35.68c4.576,1.438,9.369,2.177,14.254,2.177c14.824,0,29.017-7.043,37.962-18.833
	c7.794-10.26,11.061-22.933,9.201-35.686c-0.512-3.511-1.408-6.9-2.635-10.134l-31.015,8.017l-0.066-0.048
	C285.04,382.374,285.943,384.643,286.3,387.09z"/>
<path style="fill:#FFEB8C;" d="M255.996,260.402c-71.793,0-130.201-58.408-130.201-130.201S184.203,0,255.996,0
	s130.2,58.408,130.2,130.201S327.788,260.402,255.996,260.402z"/>
<path style="fill:#FFC82D;" d="M386.197,130.201C386.197,58.408,327.788,0,255.996,0v260.402
	C327.788,260.402,386.197,201.993,386.197,130.201z"/>
<path style="fill:#FAA55F;" d="M255.996,110.18c-0.944,0-1.714-0.768-1.714-1.714s0.769-1.714,1.714-1.714h19.463
	c9.802,0,17.749-7.947,17.749-17.749s-7.947-17.749-17.749-17.749h-1.764c-0.522-9.333-8.234-16.748-17.698-16.748
	c-9.802,0-17.749,7.947-17.749,17.749v3.512c-11.584,6.314-19.463,18.603-19.463,32.699c0,20.519,16.693,37.212,37.212,37.212
	c0.944,0,1.714,0.768,1.714,1.714c0,0.945-0.769,1.714-1.714,1.714h-19.463c-9.802,0-17.749,7.947-17.749,17.749
	c0,9.802,7.947,17.749,17.749,17.749h1.764c0.522,9.334,8.234,16.748,17.698,16.748c9.802,0,17.749-7.947,17.749-17.749v-3.512
	c11.584-6.314,19.463-18.603,19.463-32.699C293.208,126.872,276.515,110.18,255.996,110.18z"/>
<g>
	<path style="fill:#FF6E23;" d="M273.745,183.602v-3.512c11.584-6.314,19.463-18.603,19.463-32.699
		c0-20.519-16.693-37.212-37.212-37.212v35.499c0.944,0,1.714,0.768,1.714,1.714c0,0.945-0.769,1.714-1.714,1.714v52.245
		C265.799,201.351,273.745,193.404,273.745,183.602z"/>
	<path style="fill:#FF6E23;" d="M275.459,106.752c9.802,0,17.749-7.947,17.749-17.749s-7.947-17.749-17.749-17.749h-1.765
		c-0.522-9.333-8.234-16.748-17.698-16.748v52.245H275.459z"/>
</g>
<g>
</g>
<g>
</g>
<g>
</g>
<g>
</g>
<g>
</g>
<g>
</g>
<g>
</g>
<g>
</g>
<g>
</g>
<g>
</g>
<g>
</g>
<g>
</g>
<g>
</g>
<g>
</g>
<g>
</g>
</svg>
